<svg width="900" height="430" viewBox="0 0 900 430" xmlns="http://www.w3.org/2000/svg">
  <defs>
    <linearGradient id="bg" x1="0%" y1="0%" x2="0%" y2="100%">
      <stop offset="0%" stop-color="#0a1020"/>
      <stop offset="100%" stop-color="#060d1f"/>
    </linearGradient>
  </defs>

  <rect width="900" height="430" rx="10" fill="url(#bg)"/>

  <!-- ─── Column headers ─── -->
  <text x="59"  y="20" text-anchor="middle" font-family="monospace" font-size="8" fill="#475569" letter-spacing="0.5">EXTERNAL</text>
  <text x="157" y="20" text-anchor="middle" font-family="monospace" font-size="8" fill="#475569" letter-spacing="0.5">SECURITY</text>
  <text x="255" y="20" text-anchor="middle" font-family="monospace" font-size="8" fill="#475569" letter-spacing="0.5">SERVICE MESH</text>
  <text x="370" y="20" text-anchor="middle" font-family="monospace" font-size="8" fill="#475569" letter-spacing="0.5">MICROSERVICES</text>
  <text x="502" y="20" text-anchor="middle" font-family="monospace" font-size="8" fill="#475569" letter-spacing="0.5">DATA LAYER</text>
  <text x="623" y="20" text-anchor="middle" font-family="monospace" font-size="8" fill="#475569" letter-spacing="0.5">OBSERVABILITY</text>
  <text x="734" y="20" text-anchor="middle" font-family="monospace" font-size="8" fill="#475569" letter-spacing="0.5">INFRA</text>
  <text x="840" y="20" text-anchor="middle" font-family="monospace" font-size="8" fill="#475569" letter-spacing="0.5">CI/CD</text>

  <!-- ─── Column bands ─── -->
  <rect x="8"   y="26" width="100" height="250" rx="5" fill="#0a1020" stroke="#374151" stroke-width="0.6"/>
  <rect x="115" y="26" width="84"  height="250" rx="5" fill="#0a0f18" stroke="#ff4d6d" stroke-width="0.6" opacity="0.85"/>
  <rect x="206" y="26" width="98"  height="250" rx="5" fill="#0a1018" stroke="#00e5ff" stroke-width="0.6" opacity="0.85"/>
  <rect x="311" y="26" width="118" height="250" rx="5" fill="#100a1a" stroke="#a855f7" stroke-width="0.6" opacity="0.85"/>
  <rect x="436" y="26" width="132" height="250" rx="5" fill="#0a1a12" stroke="#10e98c" stroke-width="0.6" opacity="0.85"/>
  <rect x="575" y="26" width="96"  height="250" rx="5" fill="#1a1020" stroke="#f472b6" stroke-width="0.6" opacity="0.85"/>
  <rect x="678" y="26" width="112" height="250" rx="5" fill="#0a0f1a" stroke="#64748b" stroke-width="0.6" opacity="0.85"/>
  <rect x="797" y="26" width="96"  height="250" rx="5" fill="#0f1a0a" stroke="#84cc16" stroke-width="0.6" opacity="0.85"/>

  <!-- ─── Service nodes — External ─── -->
  <rect x="16"  y="44"  width="84" height="22" rx="4" fill="#ff9a3c" fill-opacity="0.18" stroke="#ff9a3c" stroke-width="0.9"/>
  <text x="58"  y="59"  text-anchor="middle" font-family="monospace" font-size="8.5" fill="#ff9a3c">Client Apps</text>
  <rect x="16"  y="74"  width="84" height="22" rx="4" fill="#ff9a3c" fill-opacity="0.18" stroke="#ff9a3c" stroke-width="0.9"/>
  <text x="58"  y="89"  text-anchor="middle" font-family="monospace" font-size="8.5" fill="#ff9a3c">External APIs</text>
  <rect x="16"  y="104" width="84" height="22" rx="4" fill="#ff9a3c" fill-opacity="0.18" stroke="#ff9a3c" stroke-width="0.9"/>
  <text x="58"  y="119" text-anchor="middle" font-family="monospace" font-size="8.5" fill="#ff9a3c">Event Sources</text>

  <!-- ─── Security ─── -->
  <rect x="123" y="44"  width="68" height="22" rx="4" fill="#00e5ff" fill-opacity="0.18" stroke="#00e5ff" stroke-width="0.9"/>
  <text x="157" y="59"  text-anchor="middle" font-family="monospace" font-size="8.5" fill="#00e5ff">API Gateway</text>
  <rect x="123" y="74"  width="68" height="22" rx="4" fill="#ff4d6d" fill-opacity="0.18" stroke="#ff4d6d" stroke-width="0.9"/>
  <text x="157" y="89"  text-anchor="middle" font-family="monospace" font-size="8.5" fill="#ff4d6d">IAM Service</text>
  <rect x="123" y="104" width="68" height="22" rx="4" fill="#ff4d6d" fill-opacity="0.18" stroke="#ff4d6d" stroke-width="0.9"/>
  <text x="157" y="119" text-anchor="middle" font-family="monospace" font-size="8.5" fill="#ff4d6d">WAF / DDoS</text>
  <rect x="123" y="134" width="68" height="22" rx="4" fill="#ff4d6d" fill-opacity="0.18" stroke="#ff4d6d" stroke-width="0.9"/>
  <text x="157" y="149" text-anchor="middle" font-family="monospace" font-size="8.5" fill="#ff4d6d">Vault / KMS</text>

  <!-- ─── Mesh ─── -->
  <rect x="214" y="44"  width="82" height="22" rx="4" fill="#00e5ff" fill-opacity="0.18" stroke="#00e5ff" stroke-width="0.9"/>
  <text x="255" y="59"  text-anchor="middle" font-family="monospace" font-size="8.5" fill="#00e5ff">Service Mesh</text>
  <rect x="214" y="74"  width="82" height="22" rx="4" fill="#00e5ff" fill-opacity="0.18" stroke="#00e5ff" stroke-width="0.9"/>
  <text x="255" y="89"  text-anchor="middle" font-family="monospace" font-size="8.5" fill="#00e5ff">Load Balancer</text>
  <rect x="214" y="104" width="82" height="22" rx="4" fill="#00e5ff" fill-opacity="0.18" stroke="#00e5ff" stroke-width="0.9"/>
  <text x="255" y="119" text-anchor="middle" font-family="monospace" font-size="8.5" fill="#00e5ff">Rate Limiter</text>

  <!-- ─── Microservices ─── -->
  <rect x="319" y="44"  width="102" height="22" rx="4" fill="#a855f7" fill-opacity="0.18" stroke="#a855f7" stroke-width="0.9"/>
  <text x="370" y="59"  text-anchor="middle" font-family="monospace" font-size="8.5" fill="#a855f7">Auth Service</text>
  <rect x="319" y="74"  width="102" height="22" rx="4" fill="#a855f7" fill-opacity="0.18" stroke="#a855f7" stroke-width="0.9"/>
  <text x="370" y="89"  text-anchor="middle" font-family="monospace" font-size="8.5" fill="#a855f7">Business Logic</text>
  <rect x="319" y="104" width="102" height="22" rx="4" fill="#a855f7" fill-opacity="0.18" stroke="#a855f7" stroke-width="0.9"/>
  <text x="370" y="119" text-anchor="middle" font-family="monospace" font-size="8.5" fill="#a855f7">NLP Pipeline</text>
  <rect x="319" y="134" width="102" height="22" rx="4" fill="#a855f7" fill-opacity="0.18" stroke="#a855f7" stroke-width="0.9"/>
  <text x="370" y="149" text-anchor="middle" font-family="monospace" font-size="8.5" fill="#a855f7">ML Models</text>
  <rect x="319" y="164" width="102" height="22" rx="4" fill="#10e98c" fill-opacity="0.18" stroke="#10e98c" stroke-width="0.9"/>
  <text x="370" y="179" text-anchor="middle" font-family="monospace" font-size="8.5" fill="#10e98c">Blockchain DLT</text>
  <rect x="319" y="194" width="102" height="22" rx="4" fill="#ffc947" fill-opacity="0.18" stroke="#ffc947" stroke-width="0.9"/>
  <text x="370" y="209" text-anchor="middle" font-family="monospace" font-size="8.5" fill="#ffc947">Notification Svc</text>

  <!-- ─── Data ─── -->
  <rect x="444" y="44"  width="116" height="22" rx="4" fill="#10e98c" fill-opacity="0.18" stroke="#10e98c" stroke-width="0.9"/>
  <text x="502" y="59"  text-anchor="middle" font-family="monospace" font-size="8.5" fill="#10e98c">PostgreSQL</text>
  <rect x="444" y="74"  width="116" height="22" rx="4" fill="#10e98c" fill-opacity="0.18" stroke="#10e98c" stroke-width="0.9"/>
  <text x="502" y="89"  text-anchor="middle" font-family="monospace" font-size="8.5" fill="#10e98c">Redis Cache</text>
  <rect x="444" y="104" width="116" height="22" rx="4" fill="#10e98c" fill-opacity="0.18" stroke="#10e98c" stroke-width="0.9"/>
  <text x="502" y="119" text-anchor="middle" font-family="monospace" font-size="8.5" fill="#10e98c">Data Lake</text>
  <rect x="444" y="134" width="116" height="22" rx="4" fill="#ffc947" fill-opacity="0.18" stroke="#ffc947" stroke-width="0.9"/>
  <text x="502" y="149" text-anchor="middle" font-family="monospace" font-size="8.5" fill="#ffc947">Event Bus / MQ</text>
  <rect x="444" y="164" width="116" height="22" rx="4" fill="#10e98c" fill-opacity="0.18" stroke="#10e98c" stroke-width="0.9"/>
  <text x="502" y="179" text-anchor="middle" font-family="monospace" font-size="8.5" fill="#10e98c">Search Engine</text>

  <!-- ─── Observability ─── -->
  <rect x="583" y="44"  width="80" height="22" rx="4" fill="#f472b6" fill-opacity="0.18" stroke="#f472b6" stroke-width="0.9"/>
  <text x="623" y="59"  text-anchor="middle" font-family="monospace" font-size="8.5" fill="#f472b6">Prometheus</text>
  <rect x="583" y="74"  width="80" height="22" rx="4" fill="#f472b6" fill-opacity="0.18" stroke="#f472b6" stroke-width="0.9"/>
  <text x="623" y="89"  text-anchor="middle" font-family="monospace" font-size="8.5" fill="#f472b6">Grafana</text>
  <rect x="583" y="104" width="80" height="22" rx="4" fill="#f472b6" fill-opacity="0.18" stroke="#f472b6" stroke-width="0.9"/>
  <text x="623" y="119" text-anchor="middle" font-family="monospace" font-size="8.5" fill="#f472b6">Jaeger Tracing</text>
  <rect x="583" y="134" width="80" height="22" rx="4" fill="#f472b6" fill-opacity="0.18" stroke="#f472b6" stroke-width="0.9"/>
  <text x="623" y="149" text-anchor="middle" font-family="monospace" font-size="8.5" fill="#f472b6">ELK Stack</text>

  <!-- ─── Infra ─── -->
  <rect x="686" y="44"  width="96" height="22" rx="4" fill="#64748b" fill-opacity="0.18" stroke="#64748b" stroke-width="0.9"/>
  <text x="734" y="59"  text-anchor="middle" font-family="monospace" font-size="8.5" fill="#64748b">Kubernetes</text>
  <rect x="686" y="74"  width="96" height="22" rx="4" fill="#64748b" fill-opacity="0.18" stroke="#64748b" stroke-width="0.9"/>
  <text x="734" y="89"  text-anchor="middle" font-family="monospace" font-size="8.5" fill="#64748b">Terraform IaC</text>
  <rect x="686" y="104" width="96" height="22" rx="4" fill="#64748b" fill-opacity="0.18" stroke="#64748b" stroke-width="0.9"/>
  <text x="734" y="119" text-anchor="middle" font-family="monospace" font-size="8.5" fill="#64748b">Service Registry</text>

  <!-- ─── CI/CD ─── -->
  <rect x="805" y="44"  width="80" height="22" rx="4" fill="#84cc16" fill-opacity="0.18" stroke="#84cc16" stroke-width="0.9"/>
  <text x="845" y="59"  text-anchor="middle" font-family="monospace" font-size="8.5" fill="#84cc16">GitHub Actions</text>
  <rect x="805" y="74"  width="80" height="22" rx="4" fill="#84cc16" fill-opacity="0.18" stroke="#84cc16" stroke-width="0.9"/>
  <text x="845" y="89"  text-anchor="middle" font-family="monospace" font-size="8.5" fill="#84cc16">ArgoCD</text>
  <rect x="805" y="104" width="80" height="22" rx="4" fill="#84cc16" fill-opacity="0.18" stroke="#84cc16" stroke-width="0.9"/>
  <text x="845" y="119" text-anchor="middle" font-family="monospace" font-size="8.5" fill="#84cc16">SonarQube</text>

  <!-- ─── Connection arrows (sample) ─── -->
  <line x1="100" y1="55" x2="123" y2="55" stroke="#00e5ff" stroke-width="0.8" stroke-dasharray="3,2" opacity="0.5"/>
  <line x1="191" y1="55" x2="214" y2="55" stroke="#00e5ff" stroke-width="0.8" stroke-dasharray="3,2" opacity="0.5"/>
  <line x1="296" y1="55" x2="319" y2="55" stroke="#a855f7" stroke-width="0.8" stroke-dasharray="3,2" opacity="0.5"/>
  <line x1="421" y1="55" x2="444" y2="55" stroke="#10e98c" stroke-width="0.8" stroke-dasharray="3,2" opacity="0.5"/>
  <line x1="560" y1="85" x2="583" y2="85" stroke="#f472b6" stroke-width="0.8" stroke-dasharray="3,2" opacity="0.5"/>
  <line x1="663" y1="55" x2="686" y2="55" stroke="#64748b" stroke-width="0.8" stroke-dasharray="3,2" opacity="0.5"/>
  <line x1="782" y1="55" x2="805" y2="55" stroke="#84cc16" stroke-width="0.8" stroke-dasharray="3,2" opacity="0.5"/>

  <!-- ─── LegalTech strip ─── -->
  <rect x="8" y="288" width="884" height="120" rx="6" fill="#060d1f" stroke="#60a5fa" stroke-width="1.2"/>
  <text x="18" y="306" font-family="monospace" font-size="9.5" fill="#60a5fa" font-weight="bold">
    ⚖  LEGALTECH DOMAIN LAYER  (v3 — novel contribution)
  </text>

  <!-- Covered services -->
  <rect x="18"  y="314" width="120" height="30" rx="4" fill="#60a5fa" fill-opacity="0.13" stroke="#60a5fa" stroke-width="0.9"/>
  <text x="78"  y="328" text-anchor="middle" font-family="monospace" font-size="8.5" fill="#60a5fa">Contract Lifecycle</text>
  <text x="78"  y="340" text-anchor="middle" font-family="monospace" font-size="7.5" fill="#93c5fd">eIDAS 910/2014</text>

  <rect x="148" y="314" width="120" height="30" rx="4" fill="#60a5fa" fill-opacity="0.13" stroke="#60a5fa" stroke-width="0.9"/>
  <text x="208" y="328" text-anchor="middle" font-family="monospace" font-size="8.5" fill="#60a5fa">GDPR Compliance</text>
  <text x="208" y="340" text-anchor="middle" font-family="monospace" font-size="7.5" fill="#93c5fd">GDPR 2016/679</text>

  <rect x="278" y="314" width="120" height="30" rx="4" fill="#60a5fa" fill-opacity="0.13" stroke="#60a5fa" stroke-width="0.9"/>
  <text x="338" y="328" text-anchor="middle" font-family="monospace" font-size="8.5" fill="#60a5fa">eIDAS Compliance</text>
  <text x="338" y="340" text-anchor="middle" font-family="monospace" font-size="7.5" fill="#93c5fd">eIDAS 2.0 / 2024</text>

  <rect x="408" y="314" width="120" height="30" rx="4" fill="#60a5fa" fill-opacity="0.13" stroke="#60a5fa" stroke-width="0.9"/>
  <text x="468" y="328" text-anchor="middle" font-family="monospace" font-size="8.5" fill="#60a5fa">NIS2 Compliance</text>
  <text x="468" y="340" text-anchor="middle" font-family="monospace" font-size="7.5" fill="#93c5fd">NIS2 2022/2555</text>

  <rect x="538" y="314" width="120" height="30" rx="4" fill="#60a5fa" fill-opacity="0.13" stroke="#60a5fa" stroke-width="0.9"/>
  <text x="598" y="328" text-anchor="middle" font-family="monospace" font-size="8.5" fill="#60a5fa">Compliance Engine</text>
  <text x="598" y="340" text-anchor="middle" font-family="monospace" font-size="7.5" fill="#93c5fd">Multi-framework</text>

  <!-- GAP services -->
  <rect x="18"  y="356" width="120" height="30" rx="4" fill="#dc2626" fill-opacity="0.12" stroke="#dc2626" stroke-width="1.2" stroke-dasharray="5,2"/>
  <text x="78"  y="370" text-anchor="middle" font-family="monospace" font-size="8.5" fill="#f87171">eDiscovery Pipeline</text>
  <text x="78"  y="382" text-anchor="middle" font-family="monospace" font-size="7.5" fill="#dc2626">⚠ GAP · EDRM</text>

  <rect x="148" y="356" width="120" height="30" rx="4" fill="#dc2626" fill-opacity="0.12" stroke="#dc2626" stroke-width="1.2" stroke-dasharray="5,2"/>
  <text x="208" y="370" text-anchor="middle" font-family="monospace" font-size="8.5" fill="#f87171">DLT Notarization</text>
  <text x="208" y="382" text-anchor="middle" font-family="monospace" font-size="7.5" fill="#dc2626">⚠ GAP · eIDAS Art.41</text>

  <rect x="278" y="356" width="120" height="30" rx="4" fill="#dc2626" fill-opacity="0.12" stroke="#dc2626" stroke-width="1.2" stroke-dasharray="5,2"/>
  <text x="338" y="370" text-anchor="middle" font-family="monospace" font-size="8.5" fill="#f87171">Smart Contracts</text>
  <text x="338" y="382" text-anchor="middle" font-family="monospace" font-size="7.5" fill="#dc2626">⚠ GAP · UNIDROIT</text>

  <rect x="408" y="356" width="120" height="30" rx="4" fill="#dc2626" fill-opacity="0.12" stroke="#dc2626" stroke-width="1.2" stroke-dasharray="5,2"/>
  <text x="468" y="370" text-anchor="middle" font-family="monospace" font-size="8.5" fill="#f87171">Attorney Privilege</text>
  <text x="468" y="382" text-anchor="middle" font-family="monospace" font-size="7.5" fill="#dc2626">⚠ GAP · ABA 1.6</text>

  <rect x="538" y="356" width="120" height="30" rx="4" fill="#dc2626" fill-opacity="0.12" stroke="#dc2626" stroke-width="1.2" stroke-dasharray="5,2"/>
  <text x="598" y="370" text-anchor="middle" font-family="monospace" font-size="8.5" fill="#f87171">Court Integration</text>
  <text x="598" y="382" text-anchor="middle" font-family="monospace" font-size="7.5" fill="#dc2626">⚠ GAP · EU e-Justice</text>

  <rect x="668" y="356" width="120" height="30" rx="4" fill="#dc2626" fill-opacity="0.12" stroke="#dc2626" stroke-width="1.2" stroke-dasharray="5,2"/>
  <text x="728" y="370" text-anchor="middle" font-family="monospace" font-size="8.5" fill="#f87171">Legal Knowledge Base</text>
  <text x="728" y="382" text-anchor="middle" font-family="monospace" font-size="7.5" fill="#dc2626">⚠ GAP · ECLI/EuroVoc</text>

  <!-- Legend bar -->
  <rect x="8" y="396" width="884" height="8" rx="4" fill="#0a0f1a"/>
  <rect x="14"  y="398" width="8" height="4" rx="1" fill="#60a5fa"/>
  <text x="26"  y="404" font-family="monospace" font-size="7.5" fill="#64748b">Covered (Ψ = 1.0)</text>
  <rect x="130" y="398" width="8" height="4" rx="1" fill="#dc2626" opacity="0.6"/>
  <text x="142" y="404" font-family="monospace" font-size="7.5" fill="#64748b">GAP — not in Digital Twin (δ &gt; 0)</text>
  <text x="430" y="404" font-family="monospace" font-size="7.5" fill="#334155">Total: 39 services · 54 connections · 8 architectural layers</text>

  <!-- Stats row -->
  <text x="450" y="420" text-anchor="middle" font-family="monospace" font-size="7.5" fill="#334155">
    TOGAF 9.2 · COBIT 5 · NIST CSF 1.1 · GDPR 2016/679 · eIDAS 2.0 · NIS2 2022/2555
  </text>
</svg>
