<svg width="900" height="530" viewBox="0 0 900 530" xmlns="http://www.w3.org/2000/svg">
  <defs>
    <linearGradient id="bg" x1="0%" y1="0%" x2="0%" y2="100%">
      <stop offset="0%" stop-color="#0d1117"/>
      <stop offset="100%" stop-color="#060d1f"/>
    </linearGradient>
    <!-- Dimension bar gradients -->
    <linearGradient id="gT"  x1="0%" y1="0%" x2="100%" y2="0%"><stop offset="0%" stop-color="#003d4d"/><stop offset="100%" stop-color="#00b8d9"/></linearGradient>
    <linearGradient id="gC"  x1="0%" y1="0%" x2="100%" y2="0%"><stop offset="0%" stop-color="#3d2d00"/><stop offset="100%" stop-color="#ffc947"/></linearGradient>
    <linearGradient id="gN"  x1="0%" y1="0%" x2="100%" y2="0%"><stop offset="0%" stop-color="#3d0018"/><stop offset="100%" stop-color="#ff4d6d"/></linearGradient>
    <linearGradient id="gA"  x1="0%" y1="0%" x2="100%" y2="0%"><stop offset="0%" stop-color="#2d0050"/><stop offset="100%" stop-color="#a855f7"/></linearGradient>
    <linearGradient id="gB"  x1="0%" y1="0%" x2="100%" y2="0%"><stop offset="0%" stop-color="#003d1a"/><stop offset="100%" stop-color="#10e98c"/></linearGradient>
    <linearGradient id="gO"  x1="0%" y1="0%" x2="100%" y2="0%"><stop offset="0%" stop-color="#3d2400"/><stop offset="100%" stop-color="#ff9a3c"/></linearGradient>
    <linearGradient id="gS"  x1="0%" y1="0%" x2="100%" y2="0%"><stop offset="0%" stop-color="#3d0030"/><stop offset="100%" stop-color="#f472b6"/></linearGradient>
    <linearGradient id="gI"  x1="0%" y1="0%" x2="100%" y2="0%"><stop offset="0%" stop-color="#003d2d"/><stop offset="100%" stop-color="#34d399"/></linearGradient>
    <linearGradient id="gL"  x1="0%" y1="0%" x2="100%" y2="0%"><stop offset="0%" stop-color="#0a1830"/><stop offset="100%" stop-color="#60a5fa"/></linearGradient>
  </defs>

  <rect width="900" height="530" rx="10" fill="url(#bg)" stroke="#1e3a5f" stroke-width="1"/>

  <!-- Title -->
  <text x="450" y="28" text-anchor="middle" font-family="monospace" font-size="13" fill="#e2e8f0" font-weight="bold">
    MALTG Conformance Dashboard — v3.0
  </text>
  <text x="450" y="46" text-anchor="middle" font-family="monospace" font-size="9" fill="#475569">
    Ω (ontology) = 82.6  ·  Δ (digital twin) = 73.7  ·  Overall gap δ = 8.9  ·  9 governance dimensions
  </text>

  <!-- ─── Scale markers ─── -->
  <!-- Bar area: x from 230 to 720, so 490px = 100 points → 4.9px per point -->
  <line x1="230" y1="58" x2="230" y2="460" stroke="#1e3a5f" stroke-width="0.6"/>
  <line x1="328" y1="58" x2="328" y2="460" stroke="#1e3a5f" stroke-width="0.4" stroke-dasharray="3,3"/>
  <line x1="426" y1="58" x2="426" y2="460" stroke="#1e3a5f" stroke-width="0.4" stroke-dasharray="3,3"/>
  <line x1="524" y1="58" x2="524" y2="460" stroke="#1e3a5f" stroke-width="0.4" stroke-dasharray="3,3"/>
  <line x1="622" y1="58" x2="622" y2="460" stroke="#1e3a5f" stroke-width="0.4" stroke-dasharray="3,3"/>
  <line x1="720" y1="58" x2="720" y2="460" stroke="#1e3a5f" stroke-width="0.6"/>

  <text x="230" y="472" text-anchor="middle" font-family="monospace" font-size="8" fill="#475569">0</text>
  <text x="328" y="472" text-anchor="middle" font-family="monospace" font-size="8" fill="#475569">20</text>
  <text x="426" y="472" text-anchor="middle" font-family="monospace" font-size="8" fill="#475569">40</text>
  <text x="524" y="472" text-anchor="middle" font-family="monospace" font-size="8" fill="#475569">60</text>
  <text x="622" y="472" text-anchor="middle" font-family="monospace" font-size="8" fill="#475569">80</text>
  <text x="720" y="472" text-anchor="middle" font-family="monospace" font-size="8" fill="#475569">100</text>
  <text x="475" y="488" text-anchor="middle" font-family="monospace" font-size="8" fill="#334155">Governance Maturity Score (0–100)</text>

  <!-- ─── Helper: x = 230 + score*4.9 ─── -->

  <!-- ── ROW 1: TOGAF  Ω=91.7 → x=679  Δ=64.2 → x=545 ── -->
  <text x="222" y="81" text-anchor="end" font-family="monospace" font-size="9.5" fill="#00b8d9">TOGAF Governance</text>
  <rect x="230" y="64" width="449" height="11" rx="2" fill="url(#gT)" opacity="0.35"/>
  <rect x="230" y="77" width="315" height="11" rx="2" fill="url(#gT)"/>
  <!-- gap box -->
  <rect x="545" y="64" width="134" height="24" rx="2" fill="#dc2626" fill-opacity="0.14" stroke="#dc2626" stroke-width="0.8" stroke-dasharray="3,2"/>
  <text x="612" y="79" text-anchor="middle" font-family="monospace" font-size="8" fill="#dc2626">−27.5</text>
  <text x="730" y="81" font-family="monospace" font-size="8.5" fill="#f97316">⚠ Gap</text>
  <text x="790" y="81" font-family="monospace" font-size="8" fill="#00b8d9">91.7 → 64.2</text>

  <!-- ── ROW 2: COBIT  Ω=84.3 → x=643  Δ=84.3 ── -->
  <text x="222" y="129" text-anchor="end" font-family="monospace" font-size="9.5" fill="#ffc947">COBIT Control</text>
  <rect x="230" y="112" width="413" height="11" rx="2" fill="url(#gC)" opacity="0.35"/>
  <rect x="230" y="125" width="413" height="11" rx="2" fill="url(#gC)"/>
  <text x="726" y="129" font-family="monospace" font-size="8.5" fill="#22c55e">✅ Full  Ψ=100%</text>
  <text x="840" y="129" font-family="monospace" font-size="8" fill="#ffc947">84.3</text>

  <!-- ── ROW 3: NIST  Ω=77.5 → x=610 ── -->
  <text x="222" y="177" text-anchor="end" font-family="monospace" font-size="9.5" fill="#ff4d6d">NIST Resilience</text>
  <rect x="230" y="160" width="380" height="11" rx="2" fill="url(#gN)" opacity="0.35"/>
  <rect x="230" y="173" width="380" height="11" rx="2" fill="url(#gN)"/>
  <text x="726" y="177" font-family="monospace" font-size="8.5" fill="#22c55e">✅ Full  Ψ=100%</text>
  <text x="840" y="177" font-family="monospace" font-size="8" fill="#ff4d6d">77.5</text>

  <!-- ── ROW 4: AI  Ω=87.2 → x=657  Δ=74.1 → x=593 ── -->
  <text x="222" y="225" text-anchor="end" font-family="monospace" font-size="9.5" fill="#a855f7">AI Integration</text>
  <rect x="230" y="208" width="427" height="11" rx="2" fill="url(#gA)" opacity="0.35"/>
  <rect x="230" y="221" width="363" height="11" rx="2" fill="url(#gA)"/>
  <rect x="593" y="208" width="64" height="24" rx="2" fill="#dc2626" fill-opacity="0.14" stroke="#dc2626" stroke-width="0.8" stroke-dasharray="3,2"/>
  <text x="625" y="223" text-anchor="middle" font-family="monospace" font-size="8" fill="#dc2626">−13.1</text>
  <text x="730" y="225" font-family="monospace" font-size="8.5" fill="#f97316">⚠ Gap</text>
  <text x="790" y="225" font-family="monospace" font-size="8" fill="#a855f7">87.2 → 74.1</text>

  <!-- ── ROW 5: Blockchain  Ω=76.2 → x=603  Δ=64.8 → x=548 ── -->
  <text x="222" y="273" text-anchor="end" font-family="monospace" font-size="9.5" fill="#10e98c">Blockchain Adopt.</text>
  <rect x="230" y="256" width="373" height="11" rx="2" fill="url(#gB)" opacity="0.35"/>
  <rect x="230" y="269" width="318" height="11" rx="2" fill="url(#gB)"/>
  <rect x="548" y="256" width="55" height="24" rx="2" fill="#dc2626" fill-opacity="0.14" stroke="#dc2626" stroke-width="0.8" stroke-dasharray="3,2"/>
  <text x="575" y="271" text-anchor="middle" font-family="monospace" font-size="8" fill="#dc2626">−11.4</text>
  <text x="730" y="273" font-family="monospace" font-size="8.5" fill="#f97316">⚠ Gap</text>
  <text x="790" y="273" font-family="monospace" font-size="8" fill="#10e98c">76.2 → 64.8</text>

  <!-- ── ROW 6: Open Data  Ω=83.4 → x=638 ── -->
  <text x="222" y="321" text-anchor="end" font-family="monospace" font-size="9.5" fill="#ff9a3c">Open Data Comply</text>
  <rect x="230" y="304" width="408" height="11" rx="2" fill="url(#gO)" opacity="0.35"/>
  <rect x="230" y="317" width="408" height="11" rx="2" fill="url(#gO)"/>
  <text x="726" y="321" font-family="monospace" font-size="8.5" fill="#22c55e">✅ Full  Ψ=100%</text>
  <text x="840" y="321" font-family="monospace" font-size="8" fill="#ff9a3c">83.4</text>

  <!-- ── ROW 7: Security  Ω=87.6 → x=659 ── -->
  <text x="222" y="369" text-anchor="end" font-family="monospace" font-size="9.5" fill="#f472b6">Security Posture</text>
  <rect x="230" y="352" width="429" height="11" rx="2" fill="url(#gS)" opacity="0.35"/>
  <rect x="230" y="365" width="429" height="11" rx="2" fill="url(#gS)"/>
  <text x="726" y="369" font-family="monospace" font-size="8.5" fill="#22c55e">✅ Full  Ψ=100%</text>
  <text x="840" y="369" font-family="monospace" font-size="8" fill="#f472b6">87.6</text>

  <!-- ── ROW 8: Interop  Ω=86.3 → x=653 ── -->
  <text x="222" y="417" text-anchor="end" font-family="monospace" font-size="9.5" fill="#34d399">Interoperability</text>
  <rect x="230" y="400" width="423" height="11" rx="2" fill="url(#gI)" opacity="0.35"/>
  <rect x="230" y="413" width="423" height="11" rx="2" fill="url(#gI)"/>
  <text x="726" y="417" font-family="monospace" font-size="8.5" fill="#22c55e">✅ Full  Ψ=100%</text>
  <text x="840" y="417" font-family="monospace" font-size="8" fill="#34d399">86.3</text>

  <!-- ── ROW 9: LegalTech CRITICAL  Ω=69.1 → x=569  Δ=41.5 → x=433 ── -->
  <rect x="8" y="432" width="884" height="34" rx="5" fill="#060d20" stroke="#60a5fa" stroke-width="1.2"/>
  <text x="222" y="454" text-anchor="end" font-family="monospace" font-size="9.5" fill="#60a5fa" font-weight="bold">⚖ LegalTech Comply</text>
  <rect x="230" y="436" width="339" height="11" rx="2" fill="url(#gL)" opacity="0.4"/>
  <rect x="230" y="449" width="204" height="11" rx="2" fill="url(#gL)"/>
  <!-- critical gap box -->
  <rect x="434" y="436" width="135" height="24" rx="2" fill="#dc2626" fill-opacity="0.22" stroke="#dc2626" stroke-width="1.4" stroke-dasharray="5,2"/>
  <text x="501" y="451" text-anchor="middle" font-family="monospace" font-size="9" fill="#dc2626" font-weight="bold">−27.6  CRITICAL</text>
  <text x="726" y="454" font-family="monospace" font-size="8.5" fill="#dc2626">🔵 Critical</text>
  <text x="790" y="454" font-family="monospace" font-size="8" fill="#60a5fa">69.1 → 41.5</text>

  <!-- ── Legend ── -->
  <rect x="230" y="498" width="12" height="8" rx="2" fill="#64748b" opacity="0.4"/>
  <text x="246" y="506" font-family="monospace" font-size="8" fill="#94a3b8">score_Ω (ontology reference)</text>
  <rect x="420" y="498" width="12" height="8" rx="2" fill="#64748b"/>
  <text x="436" y="506" font-family="monospace" font-size="8" fill="#94a3b8">score_Δ (digital twin achieved)</text>
  <rect x="618" y="498" width="12" height="8" rx="2" fill="#dc2626" fill-opacity="0.25" stroke="#dc2626" stroke-width="0.8" stroke-dasharray="2,1"/>
  <text x="634" y="506" font-family="monospace" font-size="8" fill="#94a3b8">δ gap (unrealised potential)</text>

  <text x="450" y="522" text-anchor="middle" font-family="monospace" font-size="7.5" fill="#334155">
    Ψ(d) = 0.4·𝟙[root∈R] + 0.6·(|sub(d)∩R|/|sub(d)|)   ·   δ(d) = score_Ω(d)·(1−Ψ(d))
  </text>
</svg>
